<svg width="130" height="126" viewBox="0 0 130 126" fill="none" xmlns="http://www.w3.org/2000/svg">
<rect x="3" y="3" width="123.357" height="120" rx="60" fill="#F3EBFF"/>
<rect x="1.5" y="1.5" width="126.357" height="123" rx="61.5" stroke="#D1D7D8" stroke-opacity="0.8" stroke-width="3"/>
<path fill-rule="evenodd" clip-rule="evenodd" d="M83.1826 51C83.1826 60.9411 74.8983 69 64.6791 69C54.4599 69 46.1756 60.9411 46.1756 51C46.1756 41.0589 54.4599 33 64.6791 33C74.8983 33 83.1826 41.0589 83.1826 51ZM77.0148 51C77.0148 57.6274 71.4919 63 64.6791 63C57.8663 63 52.3435 57.6274 52.3435 51C52.3435 44.3726 57.8663 39 64.6791 39C71.4919 39 77.0148 44.3726 77.0148 51Z" fill="#4F378A"/>
<path d="M64.6791 78C44.7127 78 27.7007 89.4852 21.2205 105.576C22.7991 107.101 24.4621 108.543 26.202 109.896C31.0275 95.1231 46.1655 84 64.6791 84C83.1928 84 98.3308 95.1231 103.156 109.896C104.896 108.544 106.559 107.101 108.138 105.576C101.658 89.4853 84.6456 78 64.6791 78Z" fill="#4F378A"/>
</svg>
