<svg width="28" height="30" viewBox="0 0 28 30" fill="none" xmlns="http://www.w3.org/2000/svg">
<path d="M7.75 13.75V8.75C7.75 7.0924 8.40848 5.50269 9.58058 4.33058C10.7527 3.15848 12.3424 2.5 14 2.5C15.6576 2.5 17.2473 3.15848 18.4194 4.33058C19.5915 5.50269 20.25 7.0924 20.25 8.75V13.75M5.25 13.75H22.75C24.1307 13.75 25.25 14.8693 25.25 16.25V25C25.25 26.3807 24.1307 27.5 22.75 27.5H5.25C3.86929 27.5 2.75 26.3807 2.75 25V16.25C2.75 14.8693 3.86929 13.75 5.25 13.75Z" stroke="#1E1E1E" stroke-width="4" stroke-linecap="round" stroke-linejoin="round"/>
</svg>
