<svg width="30" height="19" viewBox="0 0 30 19" fill="none" xmlns="http://www.w3.org/2000/svg">
<path d="M5.83333 2.34375C5.83333 4.06738 4.33854 5.46875 2.5 5.46875V13.2812C4.33854 13.2812 5.83333 14.6826 5.83333 16.4062H24.1667C24.1667 14.6826 25.6615 13.2812 27.5 13.2812V5.46875C25.6615 5.46875 24.1667 4.06738 24.1667 2.34375H5.83333ZM0 3.125C0 1.40137 1.49479 0 3.33333 0H26.6667C28.5052 0 30 1.40137 30 3.125V15.625C30 17.3486 28.5052 18.75 26.6667 18.75H3.33333C1.49479 18.75 0 17.3486 0 15.625V3.125ZM9.16667 9.375C9.16667 8.65683 9.31755 7.9457 9.6107 7.2822C9.90386 6.6187 10.3335 6.01583 10.8752 5.50801C11.4169 5.00019 12.0599 4.59736 12.7677 4.32253C13.4754 4.0477 14.234 3.90625 15 3.90625C15.766 3.90625 16.5246 4.0477 17.2323 4.32253C17.9401 4.59736 18.5831 5.00019 19.1248 5.50801C19.6665 6.01583 20.0961 6.6187 20.3893 7.2822C20.6824 7.9457 20.8333 8.65683 20.8333 9.375C20.8333 10.0932 20.6824 10.8043 20.3893 11.4678C20.0961 12.1313 19.6665 12.7342 19.1248 13.242C18.5831 13.7498 17.9401 14.1526 17.2323 14.4275C16.5246 14.7023 15.766 14.8438 15 14.8438C14.234 14.8438 13.4754 14.7023 12.7677 14.4275C12.0599 14.1526 11.4169 13.7498 10.8752 13.242C10.3335 12.7342 9.90386 12.1313 9.6107 11.4678C9.31755 10.8043 9.16667 10.0932 9.16667 9.375ZM13.3333 7.03125C13.3333 7.46094 13.7083 7.8125 14.1667 7.8125V10.9375H13.75C13.2917 10.9375 12.9167 11.2891 12.9167 11.7188C12.9167 12.1484 13.2917 12.5 13.75 12.5H15H16.25C16.7083 12.5 17.0833 12.1484 17.0833 11.7188C17.0833 11.2891 16.7083 10.9375 16.25 10.9375H15.8333V7.03125C15.8333 6.60156 15.4583 6.25 15 6.25H14.1667C13.7083 6.25 13.3333 6.60156 13.3333 7.03125Z" fill="black"/>
</svg>
