<svg width="24" height="24" viewBox="0 0 24 24" fill="none" xmlns="http://www.w3.org/2000/svg">
<path d="M17 13.3165V16.14C17 19.9047 15.4 21.4106 11.4 21.4106H7.6C3.6 21.4106 2 19.9047 2 16.14V12.5636C2 8.79885 3.6 7.29297 7.6 7.29297H10.6" stroke="white" stroke-width="1.5" stroke-linecap="round" stroke-linejoin="round"/>
<path d="M17.0001 13.3165H13.8001C11.4001 13.3165 10.6001 12.5636 10.6001 10.3047V7.29297L17.0001 13.3165Z" stroke="white" stroke-width="1.5" stroke-linecap="round" stroke-linejoin="round"/>
<path d="M11.6001 2.58789H15.6001" stroke="white" stroke-width="1.5" stroke-linecap="round" stroke-linejoin="round"/>
<path d="M7 5.41142C7 3.84907 8.34 2.58789 10 2.58789H12.62" stroke="white" stroke-width="1.5" stroke-linecap="round" stroke-linejoin="round"/>
<path d="M21.9999 8.23438V14.0603C21.9999 15.5191 20.7399 16.705 19.1899 16.705" stroke="white" stroke-width="1.5" stroke-linecap="round" stroke-linejoin="round"/>
<path d="M22 8.23495H19C16.75 8.23495 16 7.52907 16 5.41142V2.58789L22 8.23495Z" stroke="white" stroke-width="1.5" stroke-linecap="round" stroke-linejoin="round"/>
</svg>
